<svg xmlns="http://www.w3.org/2000/svg" width="93" height="44" viewBox="0 0 93 44" fill="none"><path d="M21.2979 3.85873C30.0172 5.57912 35.7218 14.1811 34.0406 23.0039H34.029C33.6464 25.0033 32.7767 26.9097 31.3622 28.5603C30.2491 29.8506 28.9273 30.8387 27.4779 31.5245C20.8805 34.5701 15.3498 29.5484 15.3498 29.5484C15.3034 29.4903 15.2339 29.4554 15.1527 29.467C15.0136 29.4786 14.9092 29.5949 14.9208 29.7576C14.9208 29.8157 14.944 29.8622 14.9788 29.8971C14.9208 29.839 14.9208 29.8622 14.9904 29.9204C15.002 29.932 15.0136 29.932 15.0251 29.9436C21.7269 35.6279 31.7332 34.849 37.4726 28.1535C40.6496 24.4337 41.7163 18.7843 41.0786 14.2508C42.6903 19.1214 42.1917 25.5729 38.922 29.9901C33.6232 37.1623 23.4545 38.6269 16.2426 33.303C14.6193 32.0941 13.2743 30.4783 12.4047 28.5022C11.7206 26.9445 11.4076 25.3171 11.4076 23.713C11.5119 16.4129 18.4108 13.565 18.4108 13.565C18.4804 13.5418 18.5384 13.4953 18.5731 13.4139C18.6195 13.286 18.5616 13.1233 18.434 13.0652C18.3876 13.0419 18.3413 13.0419 18.2949 13.0652C18.3644 13.0419 18.3297 13.0419 18.2601 13.0652C18.2485 13.0652 18.2369 13.0768 18.2253 13.0768C10.2365 16.7152 6.61894 26.1192 10.1669 34.2213C12.3468 39.1849 16.6368 42.5211 21.5762 43.6021C15.002 43.5208 8.98427 39.4174 6.7001 32.8729C3.76662 24.4453 8.2422 15.1459 16.6716 12.1352H16.6832C18.5731 11.461 20.6718 11.2401 22.7821 11.6354C24.4517 11.9492 25.959 12.6002 27.2924 13.4953C33.2405 17.6684 31.7448 25.0033 31.7448 25.0033C31.7216 25.073 31.7332 25.1544 31.7796 25.2125C31.8608 25.3288 32.0231 25.3636 32.1506 25.2823C32.197 25.2474 32.2202 25.2009 32.2434 25.1544C32.2318 25.2358 32.2318 25.2241 32.255 25.1312C32.255 25.1195 32.255 25.1079 32.2666 25.0963C33.7507 16.4013 28.0113 8.13646 19.35 6.55556C13.5526 5.49775 8.23061 7.29952 4.56666 11.461C7.88276 5.53263 14.3295 2.51032 21.2747 3.8936M20.9965 0.0808417C15.7788 0.452818 10.7003 2.82417 7.00156 7.13678C5.64497 8.7293 4.55506 10.4846 3.75503 12.3328C2.09697 14.3787 0.902711 16.843 0.369351 19.598C-0.697368 25.1893 0.601247 30.6527 3.55791 34.9885C6.51458 39.3244 11.1293 42.5094 16.6948 43.5324C18.6311 43.8927 20.579 43.9509 22.4458 43.7532C25.4257 44.2531 28.5678 43.9392 31.5245 42.6606C36.7306 40.4171 40.5105 36.2672 42.4352 31.385C44.3483 26.4912 44.3947 20.865 42.1105 15.6574C41.7047 14.7391 41.2525 13.8905 40.7424 13.0535C39.9307 10.0661 38.2727 7.28789 35.803 5.10253C31.9419 1.69662 27.1765 0.0227203 22.411 0.0227203C17.6456 0.0227203 21.4602 0.0343448 20.9849 0.0692176" fill="#5FCEF8"/><path d="M47.7804 31.5478V14.5182H51.5023V28.1418H59.9549V31.5478H47.7804Z" fill="#04124D"/><path d="M71.3177 20.4814C71.3177 18.8075 70.1583 17.9125 68.2915 17.9125H65.416V23.1202H68.3727C70.2278 23.1202 71.3293 22.0042 71.3293 20.5512V20.4931L71.3177 20.4814ZM68.2451 26.4447H65.416V31.5478H61.6825V14.5182H68.6046C72.6512 14.5182 75.0861 16.9244 75.0861 20.4001V20.4466C75.0976 24.3988 72.0598 26.4447 68.2451 26.4447Z" fill="#04124D"/><path d="M76.7789 31.5478V14.5182H89.5563V17.866H80.4776V21.3184H88.4664V24.6429H80.4776V28.2232H89.6839V31.5478H76.7789Z" fill="#04124D"/><path d="M91.1796 12.1236H91.3651C91.6202 12.1236 91.7594 12.205 91.7594 12.391C91.7594 12.5769 91.6318 12.6467 91.3999 12.6467H91.1912V12.1236H91.1796ZM90.7622 11.833V13.5883H91.1796V12.8676H91.3883L91.713 13.5883H92.1768L91.7825 12.8094C92.0144 12.7513 92.1536 12.5769 92.1536 12.3445C92.1536 12.112 91.8985 11.8446 91.3999 11.8446H90.739L90.7622 11.833ZM91.4231 11.4261C91.7825 11.4261 92.1072 11.5656 92.3623 11.8214C92.6174 12.0771 92.7333 12.391 92.7333 12.7746C92.7333 13.1582 92.5942 13.4488 92.3391 13.6813C92.0724 13.937 91.7478 14.0765 91.3999 14.0765C91.0521 14.0765 90.7158 13.937 90.4607 13.6696C90.2057 13.4139 90.0897 13.0884 90.0897 12.7397C90.0897 12.391 90.2288 12.0539 90.4955 11.7981C90.7506 11.5424 91.0637 11.4261 91.4231 11.4261ZM91.4231 11.1588C90.855 11.1588 90.3564 11.4378 90.0781 11.926C89.9274 12.1933 89.8462 12.4607 89.8462 12.7629C89.8462 13.0652 89.9969 13.565 90.2984 13.8556C90.5999 14.1695 91.0057 14.3438 91.4231 14.3438C91.8405 14.3438 92.2347 14.1927 92.5362 13.8905C92.8377 13.5883 93 13.2047 93 12.7746C93 12.3445 92.8493 11.9609 92.5478 11.6586C92.2463 11.3331 91.8405 11.1588 91.4231 11.1588Z" fill="#04124D"/></svg>